HIERARCHY
ROOT hip
{
  OFFSET 0 0 0
  CHANNELS 6 Xposition Yposition Zposition Zrotation Yrotation Xrotation
  JOINT abdomen
  {
    OFFSET 0 20.6881 -0.73152
    CHANNELS 3 Zrotation Xrotation Yrotation
    JOINT chest
    {
      OFFSET 0 11.7043 -0.48768
      CHANNELS 3 Zrotation Xrotation Yrotation
      JOINT neck
      {
        OFFSET 0 22.1894 -2.19456
        CHANNELS 3 Zrotation Xrotation Yrotation
        JOINT head
        {
          OFFSET -0.24384 7.07133 1.2192
          CHANNELS 3 Zrotation Xrotation Yrotation
          JOINT leftEye
          {
            OFFSET 4.14528 8.04674 8.04672
            CHANNELS 3 Zrotation Xrotation Yrotation
            End Site
            {
              OFFSET 1 0 0
            }
          }
          JOINT rightEye
          {
            OFFSET -3.6576 8.04674 8.04672
            CHANNELS 3 Zrotation Xrotation Yrotation
            End Site
            {
              OFFSET 1 0 0
            }
          }
        }
      }
      JOINT rCollar
      {
        OFFSET -2.68224 19.2634 -4.8768
        CHANNELS 3 Zrotation Xrotation Yrotation
        JOINT rShldr
        {
          OFFSET -8.77824 -1.95073 1.46304
          CHANNELS 3 Zrotation Xrotation Yrotation
          JOINT rForeArm
          {
            OFFSET -28.1742 -1.7115 0.48768
            CHANNELS 3 Zrotation Xrotation Yrotation
            JOINT rHand
            {
              OFFSET -22.5879 0.773209 7.07136
              CHANNELS 3 Zrotation Xrotation Yrotation
              JOINT rThumb1
              {
                OFFSET -1.2192 -0.487915 3.41376
                CHANNELS 3 Zrotation Xrotation Yrotation
                JOINT rThumb2
                {
                  OFFSET -3.37035 -0.52449 3.41376
                  CHANNELS 3 Zrotation Xrotation Yrotation
                  End Site
                  {
                    OFFSET -1.78271 -1.18214 1.43049
                  }
                }
              }
              JOINT rIndex1
              {
                OFFSET -7.75947 0.938293 5.60832
                CHANNELS 3 Zrotation Xrotation Yrotation
                JOINT rIndex2
                {
                  OFFSET -2.54057 -0.884171 1.56538
                  CHANNELS 3 Zrotation Xrotation Yrotation
                  End Site
                  {
                    OFFSET -1.62519 -0.234802 1.16502
                  }
                }
              }
              JOINT rMid1
              {
                OFFSET -8.24714 1.18213 3.41376
                CHANNELS 3 Zrotation Xrotation Yrotation
                JOINT rMid2
                {
                  OFFSET -3.10165 -0.590103 1.0647
                  CHANNELS 3 Zrotation Xrotation Yrotation
                  End Site
                  {
                    OFFSET -2.48547 -0.328903 0.83742
                  }
                }
              }
              JOINT rRing1
              {
                OFFSET -8.82822 0.546677 1.51678
                CHANNELS 3 Zrotation Xrotation Yrotation
                JOINT rRing2
                {
                  OFFSET -2.60934 -0.819778 -0.0198488
                  CHANNELS 3 Zrotation Xrotation Yrotation
                  End Site
                  {
                    OFFSET -2.33842 -0.294052 0.168128
                  }
                }
              }
              JOINT rPinky1
              {
                OFFSET -8.27202 -0.0477905 -0.4584
                CHANNELS 3 Zrotation Xrotation Yrotation
                JOINT rPinky2
                {
                  OFFSET -1.82734 -0.647385 -0.700984
                  CHANNELS 3 Zrotation Xrotation Yrotation
                  End Site
                  {
                    OFFSET -1.69225 -0.51767 -0.607171
                  }
                }
              }
            }
          }
        }
      }
      JOINT lCollar
      {
        OFFSET 2.68224 19.2634 -4.8768
        CHANNELS 3 Zrotation Xrotation Yrotation
        JOINT lShldr
        {
          OFFSET 8.77824 -1.95073 1.46304
          CHANNELS 3 Zrotation Xrotation Yrotation
          JOINT lForeArm
          {
            OFFSET 28.1742 -1.7115 0.48768
            CHANNELS 3 Zrotation Xrotation Yrotation
            JOINT lHand
            {
              OFFSET 22.5879 0.773209 7.07136
              CHANNELS 3 Zrotation Xrotation Yrotation
              JOINT lThumb1
              {
                OFFSET 1.2192 -0.487915 3.41376
                CHANNELS 3 Zrotation Xrotation Yrotation
                JOINT lThumb2
                {
                  OFFSET 3.37035 -0.52449 3.41376
                  CHANNELS 3 Zrotation Xrotation Yrotation
                  End Site
                  {
                    OFFSET 1.78271 -1.18214 1.43049
                  }
                }
              }
              JOINT lIndex1
              {
                OFFSET 7.75947 0.938293 5.60832
                CHANNELS 3 Zrotation Xrotation Yrotation
                JOINT lIndex2
                {
                  OFFSET 2.54057 -0.884171 1.56538
                  CHANNELS 3 Zrotation Xrotation Yrotation
                  End Site
                  {
                    OFFSET 1.62519 -0.234802 1.16502
                  }
                }
              }
              JOINT lMid1
              {
                OFFSET 8.24714 1.18213 3.41376
                CHANNELS 3 Zrotation Xrotation Yrotation
                JOINT lMid2
                {
                  OFFSET 3.10165 -0.590103 1.0647
                  CHANNELS 3 Zrotation Xrotation Yrotation
                  End Site
                  {
                    OFFSET 2.48547 -0.328903 0.83742
                  }
                }
              }
              JOINT lRing1
              {
                OFFSET 8.82822 0.546677 1.51678
                CHANNELS 3 Zrotation Xrotation Yrotation
                JOINT lRing2
                {
                  OFFSET 2.60934 -0.819778 -0.0198488
                  CHANNELS 3 Zrotation Xrotation Yrotation
                  End Site
                  {
                    OFFSET 2.33842 -0.294052 0.168128
                  }
                }
              }
              JOINT lPinky1
              {
                OFFSET 8.27202 -0.0477905 -0.4584
                CHANNELS 3 Zrotation Xrotation Yrotation
                JOINT lPinky2
                {
                  OFFSET 1.82734 -0.647385 -0.700984
                  CHANNELS 3 Zrotation Xrotation Yrotation
                  End Site
                  {
                    OFFSET 1.69225 -0.51767 -0.607171
                  }
                }
              }
            }
          }
        }
      }
    }
  }
  JOINT rButtock
  {
    OFFSET -8.77824 4.35084 1.2192
    CHANNELS 3 Zrotation Xrotation Yrotation
    JOINT rThigh
    {
      OFFSET 0 -1.70687 -2.19456
      CHANNELS 3 Zrotation Xrotation Yrotation
      JOINT rShin
      {
        OFFSET 0 -36.8199 0.73152
        CHANNELS 3 Zrotation Xrotation Yrotation
        JOINT rFoot
        {
          OFFSET 0.73152 -45.1104 -5.12064
          CHANNELS 3 Zrotation Xrotation Yrotation
          End Site
          {
            OFFSET -1.1221 -3.69964 12.103
          }
        }
      }
    }
  }
  JOINT lButtock
  {
    OFFSET 8.77824 4.35084 1.2192
    CHANNELS 3 Zrotation Xrotation Yrotation
    JOINT lThigh
    {
      OFFSET 0 -1.70687 -2.19456
      CHANNELS 3 Zrotation Xrotation Yrotation
      JOINT lShin
      {
        OFFSET 0 -36.8199 0.73152
        CHANNELS 3 Zrotation Xrotation Yrotation
        JOINT lFoot
        {
          OFFSET -0.73152 -45.1104 -5.12064
          CHANNELS 3 Zrotation Xrotation Yrotation
          End Site
          {
            OFFSET 1.1221 -3.69964 12.103
          }
        }
      }
    }
  }
}
MOTION
Frames:	4
Frame Time:	0.00833333
27.5061 81.9478 -96.4106 164.327 -118.55 -528.72 7.80348 19.856 8.28255 6.30162 -13.4957 3.31097 -5.0453 13.7322 4.415 -3.70715 -26.9251 8.01977 -0.0 0.0 0.0 -0.0 0.0 0.0 2.03273e-14 -1.07055e-13 -2.48512e-14 54.2234 31.2567 18.7834 -27.7564 -29.3188 66.1682 -0.0656062 7.30071 1.03166 6.09708e-10 -1.23191e-09 -9.04986e-10 1.04711e-09 -2.12207e-09 -1.56542e-09 6.09718e-10 -1.23192e-09 -9.04998e-10 7.73091 5.47488 0.417314 6.09709e-10 -1.23192e-09 -9.04989e-10 2.90554 0.965183 0.102902 6.09719e-10 -1.23192e-09 -9.04986e-10 10.2786 0.731801 0.0259123 6.09703e-10 -1.23191e-09 -9.04979e-10 2.22167 -0.733487 -0.20892 2.03728e-14 -1.07035e-13 -2.50729e-14 -48.0641 -1.11017 -24.754 26.4442 -24.6319 -58.6913 0.535375 20.3307 -2.98494 2.06823e-11 8.27312e-10 -7.95768e-10 2.68974e-11 1.44783e-09 -1.37515e-09 2.06769e-11 8.27314e-10 -7.95757e-10 -7.73091 5.47488 -0.417314 2.06854e-11 8.27316e-10 -7.9577e-10 -2.90554 0.965183 -0.102902 2.06755e-11 8.27316e-10 -7.95771e-10 -10.2786 0.731801 -0.0259123 2.06865e-11 8.27318e-10 -7.95779e-10 -2.22167 -0.733487 0.20892 -2.03217e-16 0.0 -3.88251e-19 1.54813 -9.58229 -2.2487 -0.133854 25.0562 0.47833 -1.60572 -7.71001 -7.54502 2.03217e-16 0.0 3.88251e-19 17.7316 -29.9345 -0.165689 1.12605 61.8551 -1.82314 -3.73504 -4.63217 -20.9089
27.0639 81.7975 -96.2062 165.666 -119.378 -530.149 7.67665 20.0373 8.31805 6.51082 -13.7528 3.35795 -5.32886 13.5012 4.22688 -3.15033 -26.8824 7.82375 -0.0 0.0 0.0 -0.0 0.0 0.0 -1.53634e-14 -8.0568e-14 2.54177e-13 52.8365 31.7795 20.4366 -27.7623 -29.348 66.2159 -0.0712772 7.61378 1.0764 -1.33994e-09 1.76462e-09 -2.46214e-10 -2.31904e-09 3.06796e-09 -4.15642e-10 -1.33993e-09 1.76462e-09 -2.46229e-10 7.73091 5.47488 0.417314 -1.33994e-09 1.76462e-09 -2.46216e-10 2.90554 0.965183 0.102902 -1.33993e-09 1.76462e-09 -2.46217e-10 10.2786 0.731801 0.0259123 -1.33995e-09 1.76463e-09 -2.4621e-10 2.22167 -0.733487 -0.20892 -1.53251e-14 -8.0546e-14 2.54006e-13 -47.3809 -1.9285 -26.3409 26.2276 -24.0313 -57.7449 0.526512 20.1693 -2.95917 1.44721e-09 -1.94322e-09 -1.02298e-09 2.48739e-09 -3.31171e-09 -1.78703e-09 1.4472e-09 -1.94322e-09 -1.02296e-09 -7.73091 5.47488 -0.417314 1.44721e-09 -1.94322e-09 -1.02298e-09 -2.90554 0.965183 -0.102902 1.4472e-09 -1.94322e-09 -1.02299e-09 -10.2786 0.731801 -0.0259123 1.44721e-09 -1.94321e-09 -1.023e-09 -2.22167 -0.733487 0.20892 -2.03217e-16 0.0 -3.88251e-19 1.41885 -8.92221 -2.82381 -0.135301 25.1365 0.477552 -1.74842 -8.12766 -7.93747 2.03217e-16 0.0 3.88251e-19 17.9074 -30.3403 0.646886 1.06167 60.79 -1.71828 -3.79782 -4.71561 -21.0771
26.5995 81.7559 -96.1014 165.987 -120.323 -530.544 7.56911 20.2397 8.35906 6.7015 -14.0053 3.40499 -5.58221 13.1818 4.04029 -2.61849 -26.7196 7.63298 -0.0 0.0 0.0 -0.0 0.0 0.0 -5.33125e-14 -6.35967e-14 5.2545e-13 51.3857 32.2345 22.1184 -27.7677 -29.3735 66.2541 -0.0776873 7.93819 1.12287 -3.19337e-09 4.60636e-09 3.97036e-10 -5.51888e-09 7.98939e-09 7.06604e-10 -3.19336e-09 4.60636e-09 3.97019e-10 7.73091 5.47488 0.417314 -3.19337e-09 4.60636e-09 3.97036e-10 2.90554 0.965183 0.102902 -3.19336e-09 4.60636e-09 3.97032e-10 10.2786 0.731801 0.0259123 -3.19337e-09 4.60637e-09 3.97037e-10 2.22167 -0.733487 -0.20892 -5.32871e-14 -6.35752e-14 5.25328e-13 -46.7336 -2.72309 -27.9508 25.9882 -23.4018 -56.7381 0.516821 19.9925 -2.93095 2.75409e-09 -4.49916e-09 -1.21973e-09 4.74147e-09 -7.70286e-09 -2.14451e-09 2.75408e-09 -4.49916e-09 -1.2197e-09 -7.73091 5.47488 -0.417314 2.75409e-09 -4.49916e-09 -1.21972e-09 -2.90554 0.965183 -0.102902 2.75408e-09 -4.49916e-09 -1.21973e-09 -10.2786 0.731801 -0.0259123 2.75409e-09 -4.49915e-09 -1.21974e-09 -2.22167 -0.733487 0.20892 -2.03217e-16 0.0 -3.88251e-19 1.3312 -8.25518 -3.39247 -0.136692 25.1952 0.476234 -1.89993 -8.52721 -8.3569 2.03217e-16 0.0 3.88251e-19 18.0662 -30.7051 1.43244 0.997695 59.6557 -1.61335 -3.84289 -4.79867 -21.1747
26.0655 81.7519 -96.0708 165.357 -121.294 -530.263 7.5575 20.3987 8.46826 6.79002 -14.2445 3.46233 -5.70238 12.8376 3.86628 -2.29241 -26.4057 7.41316 -0.0 0.0 0.0 -0.0 0.0 0.0 -6.8361e-14 -4.77171e-14 6.71196e-13 50.0305 32.6098 23.7068 -27.7819 -29.4408 66.357 -0.0822371 8.15334 1.15375 -4.12521e-09 5.98598e-09 7.35058e-10 -7.12749e-09 1.03781e-08 1.29586e-09 -4.1252e-09 5.98598e-09 7.35039e-10 7.73091 5.47488 0.417314 -4.12521e-09 5.98598e-09 7.35058e-10 2.90554 0.965183 0.102902 -4.1252e-09 5.98598e-09 7.35052e-10 10.2786 0.731801 0.0259123 -4.12521e-09 5.98599e-09 7.35058e-10 2.22167 -0.733487 -0.20892 -6.83578e-14 -4.76992e-14 6.71097e-13 -45.9693 -3.3993 -29.621 25.722 -22.7413 -55.6423 0.504994 19.776 -2.89647 3.31184e-09 -5.59185e-09 -1.30956e-09 5.70316e-09 -9.58012e-09 -2.30704e-09 3.31184e-09 -5.59185e-09 -1.30954e-09 -7.73091 5.47488 -0.417314 3.31185e-09 -5.59184e-09 -1.30956e-09 -2.90554 0.965183 -0.102902 3.31184e-09 -5.59184e-09 -1.30957e-09 -10.2786 0.731801 -0.0259123 3.31185e-09 -5.59184e-09 -1.30958e-09 -2.22167 -0.733487 0.20892 -2.03217e-16 0.0 -3.88251e-19 1.4162 -7.64608 -3.83535 -0.137828 25.2078 0.473905 -2.08182 -8.86255 -8.91746 2.03217e-16 0.0 3.88251e-19 18.3178 -31.1301 2.24979 0.936614 58.4927 -1.50873 -3.89859 -5.04976 -21.01
